<svg width="200" height="200" viewBox="0 0 200 200" fill="none" xmlns="http://www.w3.org/2000/svg">
<circle cx="100" cy="100" r="100" fill="#00BC22"/>
<circle cx="99.9999" cy="99.9999" r="88.2353" fill="#00BC22"/>
<path d="M100.637 77.815C94.1062 63.8236 85.5832 44.0557 67.6222 48.4988C49.1268 53.0742 39.223 71.5812 44.5597 90.7688C53.3701 122.446 78.8927 140.992 99.8989 162.533" stroke="#BC2554" stroke-width="3" stroke-linecap="round"/>
<path d="M100.609 77.799C106.99 63.8116 115.318 44.0488 132.891 48.5022C150.987 53.0882 160.686 71.6007 155.475 90.7849C146.874 122.457 121.916 140.987 101.378 162.516" stroke="#BC2554" stroke-width="3" stroke-linecap="round"/>
<ellipse cx="2.58518" cy="1.70869" rx="2.58518" ry="1.70869" transform="matrix(0.999995 0.00317328 -0.00274866 0.999996 98.0566 161.272)" fill="#BC2554"/>
<path d="M71.9063 96.7221C87.5792 98.3272 102.698 99.8158 116.75 91.1166C124.174 86.521 127.102 79.0083 133.246 73.4995C137.113 70.0329 132.031 83.9042 130.283 88.7944C123.794 106.952 114.593 123.442 104.578 139.804C103.983 140.776 116.131 131.672 116.83 130.995C125.17 122.931 131.415 113.056 138.091 103.649C145.016 93.8906 146.807 83.2803 141.014 72.6587C137.57 66.3461 129.249 61.0613 121.955 64.3706C118.316 66.0215 116.707 70.3903 114.988 73.6596C112.466 78.4589 109.492 82.9768 106.86 87.7133C105.449 90.2537 103.107 95.3297 99.293 94.4399C92.6567 92.8914 93.3744 81.2155 92.6465 76.3022C91.8673 71.0422 86.4513 70.3624 82.5567 67.854C78.752 65.4035 76.1393 62.7025 71.2657 63.0093C63.3536 63.5072 48.6922 71.6515 49.4044 81.267C50.036 89.7926 71.6448 74.1944 76.5509 76.4624C78.9459 77.5695 82.6643 80.5223 82.3165 83.5893C81.7815 88.3065 72.863 90.4547 69.504 92.0776C65.5751 93.9758 61.4446 96.0425 57.6525 98.1635C53.2275 100.638 61.3705 112.468 62.6573 114.459C65.3527 118.63 88.6848 149.804 96.0098 140.445C99.5412 135.932 93.4377 128.007 90.6446 125.07C84.8088 118.933 72.7534 115.813 69.2237 107.813C66.231 101.029 78.0965 106.631 79.1934 107.252C84.5339 110.279 91.3006 118.652 98.0118 118.263C106.269 117.784 109.28 106.871 112.986 101.046" stroke="#BC2554" stroke-width="3" stroke-linecap="round"/>
<path d="M97.8516 104.65C98.2684 120.908 99.4974 137.587 102.176 153.658" stroke="#BC2554" stroke-width="3" stroke-linecap="round"/>
<path d="M116.878 109.266C121.49 103.767 123.801 97.4733 127.386 91.4501C129.095 88.5794 129.979 85.5245 130.389 82.2441" stroke="#BC2554" stroke-width="50" stroke-linecap="round"/>
<path d="M130.389 82.2444C130.389 81.1414 130.624 78.5466 130.764 81.273C130.856 83.0566 131.02 84.941 129.947 86.4611C128.408 88.6416 127.869 89.8245 129.506 91.8698C129.682 92.0898 129.587 93.1866 129.395 92.4218C128.677 89.5465 129.197 86.076 129.197 83.1275C129.197 80.5804 128.345 77.7027 131.184 76.2837" stroke="#BC2554" stroke-width="50" stroke-linecap="round"/>
<path d="M97.4819 114.17C96.5641 117.055 96.152 119.702 96.7533 122.709C97.1791 124.838 98.0723 126.308 99.1635 128.127" stroke="#BC2554" stroke-width="50" stroke-linecap="round"/>
<path d="M95.1277 121.4C92.2692 116.915 89.5764 112.408 87.1215 107.686C85.8797 105.297 82.6829 98.0205 83.1044 100.679C83.5845 103.708 85.9495 106.593 87.5606 109.125" stroke="#BC2554" stroke-width="50" stroke-linecap="round"/>
<path d="M76.7984 89.787C75.6472 87.4616 74.3849 85.1481 73.6781 82.6402C73.1852 80.8913 73.0379 79.0938 72.5944 77.3433C72.3268 76.287 71.3868 75.3711 72.0899 74.3164" stroke="#BC2554" stroke-width="50" stroke-linecap="round"/>
<path d="M83.1885 101.558C84.5599 101.754 85.8469 102.272 87.1869 102.604C88.6389 102.964 89.7126 102.67 91.0172 101.997C92.3738 101.297 93.3926 100.885 94.9596 100.885" stroke="#BC2554" stroke-width="50" stroke-linecap="round"/>
<path d="M88.7375 106.939C86.8792 107.012 84.622 107.174 83.3564 108.621" stroke="#BC2554" stroke-width="50" stroke-linecap="round"/>
<path d="M80.8339 138.553C79.548 137.142 78.273 135.864 76.7421 134.723C75.9647 134.143 75.2953 133.598 74.8176 132.742C74.2786 131.776 73.8718 130.582 73.0986 129.809" stroke="#BC2554" stroke-width="10" stroke-linecap="round"/>
<path d="M75.9573 118.374C74.9643 120.657 73.2152 122.793 71.8468 124.876C71.0444 126.097 70.6822 126.828 69.231 127.118" stroke="#BC2554" stroke-width="10" stroke-linecap="round"/>
<path d="M64.8591 115.851C63.7309 116.077 62.2582 116.992 61.552 115.646C59.8297 112.363 58.2598 108.887 56.8902 105.444C55.6641 102.361 54.3879 99.3231 53.3309 96.1766C52.2854 93.0644 50.8647 90.0307 50.3975 86.7598" stroke="#BC2554" stroke-width="10" stroke-linecap="round"/>
<path d="M51.4974 91.4217C51.5568 92.3426 51.6251 93.2636 51.6464 94.1865C51.6517 94.4139 51.6562 94.6329 51.7375 94.8487C51.8606 95.1756 52.0568 95.4803 52.2259 95.7841C52.3351 95.9804 52.5766 96.6018 52.5404 96.3801C52.1347 93.8952 51.5613 91.2841 50.6117 88.9466C50.5655 88.8329 50.4791 88.5161 50.3799 88.5161" stroke="#BC2554" stroke-width="10" stroke-linecap="round"/>
<path d="M50.3802 88.5164C50.4444 88.9982 50.1125 87.5807 49.9414 87.1257C49.5605 86.1127 48.9237 85.2761 48.4721 84.3071C48.1667 83.6518 48.1895 83.0105 48.2238 82.3038C48.2787 81.1706 48.2941 80.0401 48.2941 78.9058" stroke="#BC2554" stroke-width="10" stroke-linecap="round"/>
<path d="M51.7956 74.361C50.7895 74.1004 50.6722 74.064 49.7261 73.8395C49.5476 73.7971 48.8652 73.7886 48.8652 73.4628C48.8652 72.2036 49.5337 70.7403 50.0986 69.6508C50.5898 68.7036 51.1272 67.761 51.6466 66.8281C51.9659 66.2545 52.3298 65.9515 52.8386 65.5698" stroke="#BC2554" stroke-width="10" stroke-linecap="round"/>
<path d="M92.2925 89.6351C93.725 85.7972 95.309 81.9988 96.7014 78.1492C96.8394 77.7678 96.8843 77.8485 97.3119 78.0135C98.7845 78.5817 100.274 79.2339 101.857 79.4379C103.161 79.6061 104.304 79.4756 104.796 78.1492C105.097 77.336 105.086 76.4557 105.406 75.6395C105.742 74.7836 106.228 73.9729 106.639 73.1523" stroke="#BC2554" stroke-width="10" stroke-linecap="round"/>
<path d="M130.872 69.1164C132.291 66.3818 133.695 63.6575 135.303 61.0288C136.016 59.8639 136.481 58.979 136.621 57.612C136.73 56.5422 136.825 55.134 135.451 54.9701C133.189 54.7002 130.941 54.8586 128.674 54.484C127.788 54.3376 126.926 54.3058 126.032 54.2726C125.966 54.2702 125.529 54.2732 125.898 54.1952C126.296 54.1111 127.156 54.0075 127.476 53.9697C128.302 53.8722 129.125 53.7957 129.956 53.7725C130.605 53.7543 131.006 53.6738 129.815 53.6738C128.298 53.6738 126.775 53.7793 125.314 54.2163C123.906 54.6372 122.699 55.4901 121.446 56.2241C119.799 57.1884 117.964 58.0061 116.768 59.5493C115.698 60.9301 114.637 62.3752 113.626 63.7904" stroke="#BC2554" stroke-width="10" stroke-linecap="round"/>
<path d="M114.768 120.981C117.608 122.855 120.451 124.726 123.299 126.589C124.337 127.267 125.372 128.014 126.476 128.59C126.925 128.823 128.781 129.288 127.794 130.048C124.387 132.668 121.846 136.006 119.586 139.622" stroke="#BC2554" stroke-width="10" stroke-linecap="round"/>
<path d="M111.597 145.836C110.736 146.299 109.975 146.712 109.505 147.618C109.07 148.456 109.326 149.387 108.758 150.169C108.24 150.882 107.492 151.436 106.779 151.937C105.915 152.543 105.168 153.149 104.369 153.825" stroke="#BC2554" stroke-width="10" stroke-linecap="round"/>
<path d="M95.6927 152.528C95.1933 152.328 95.8372 152.896 95.9315 152.98C96.327 153.332 96.7602 153.625 97.1922 153.927" stroke="#BC2554" stroke-width="10" stroke-linecap="round"/>
<path d="M100.491 156.776C100.591 157.129 100.668 157.483 100.791 157.826" stroke="#BC2554" stroke-width="10" stroke-linecap="round"/>
</svg>
